# xmcd
#
# Track frame offsets: 
#        150
#        15105
#        34947
#        50535
#        66392
#        80296
#        95940
#        106842
#        119618
#        134278
#        148392
#        160127
#        175508
#        196878
#        214596
#        232730
#        246578
#
# Disc length: 3501 seconds
#
# Revision: 0
# Processed by: cddbd v1.5.2PL0 Copyright (c) Steve Scherf et al.
# Submitted via: ExactAudioCopy v1.0b1
#
DISCID=eb0dab11
DTITLE=Blue Lunch - Big Sound Blues
DYEAR=2004
DGENRE=Swing
TTITLE0=IC Boogie
TTITLE1=Alligator Meat
TTITLE2=You Got to Dance the Cha Cha With Me
TTITLE3=Cleveland, Ohio Blues
TTITLE4=Chicken Blues
TTITLE5=I'm Not Ashamed
TTITLE6=The Fidget
TTITLE7=I Do, I Do, I Do
TTITLE8=New Place to Hang My Hat
TTITLE9=Teardrops From My Eyes
TTITLE10=Little Boy Blue
TTITLE11=Honey Chile
TTITLE12=Vida Lee
TTITLE13=Quaker City
TTITLE14=Poison Ivy
TTITLE15=If It Ain't Me
TTITLE16=Thrill On the Hill
EXTD=
EXTT0=
EXTT1=
EXTT2=
EXTT3=
EXTT4=
EXTT5=
EXTT6=
EXTT7=
EXTT8=
EXTT9=
EXTT10=
EXTT11=
EXTT12=
EXTT13=
EXTT14=
EXTT15=
EXTT16=
PLAYORDER=
